<svg id="visual" viewBox="0 0 900 600" width="900" height="600" xmlns="http://www.w3.org/2000/svg" xmlns:xlink="http://www.w3.org/1999/xlink" version="1.1"><path d="M0 121L82 121L82 115L164 115L164 199L245 199L245 133L327 133L327 169L409 169L409 187L491 187L491 181L573 181L573 187L655 187L655 157L736 157L736 211L818 211L818 223L900 223L900 121L900 0L900 0L818 0L818 0L736 0L736 0L655 0L655 0L573 0L573 0L491 0L491 0L409 0L409 0L327 0L327 0L245 0L245 0L164 0L164 0L82 0L82 0L0 0Z" fill="#fa7268"></path><path d="M0 307L82 307L82 283L164 283L164 349L245 349L245 301L327 301L327 337L409 337L409 259L491 259L491 313L573 313L573 325L655 325L655 337L736 337L736 331L818 331L818 349L900 349L900 301L900 119L900 221L818 221L818 209L736 209L736 155L655 155L655 185L573 185L573 179L491 179L491 185L409 185L409 167L327 167L327 131L245 131L245 197L164 197L164 113L82 113L82 119L0 119Z" fill="#ea5e66"></path><path d="M0 391L82 391L82 325L164 325L164 451L245 451L245 379L327 379L327 403L409 403L409 361L491 361L491 379L573 379L573 373L655 373L655 439L736 439L736 433L818 433L818 427L900 427L900 367L900 299L900 347L818 347L818 329L736 329L736 335L655 335L655 323L573 323L573 311L491 311L491 257L409 257L409 335L327 335L327 299L245 299L245 347L164 347L164 281L82 281L82 305L0 305Z" fill="#d84a64"></path><path d="M0 487L82 487L82 451L164 451L164 499L245 499L245 475L327 475L327 457L409 457L409 463L491 463L491 505L573 505L573 463L655 463L655 541L736 541L736 535L818 535L818 529L900 529L900 469L900 365L900 425L818 425L818 431L736 431L736 437L655 437L655 371L573 371L573 377L491 377L491 359L409 359L409 401L327 401L327 377L245 377L245 449L164 449L164 323L82 323L82 389L0 389Z" fill="#c53762"></path><path d="M0 601L82 601L82 601L164 601L164 601L245 601L245 601L327 601L327 601L409 601L409 601L491 601L491 601L573 601L573 601L655 601L655 601L736 601L736 601L818 601L818 601L900 601L900 601L900 467L900 527L818 527L818 533L736 533L736 539L655 539L655 461L573 461L573 503L491 503L491 461L409 461L409 455L327 455L327 473L245 473L245 497L164 497L164 449L82 449L82 485L0 485Z" fill="#b0235f"></path></svg>