<svg id="visual" viewBox="0 0 900 600" width="900" height="600" xmlns="http://www.w3.org/2000/svg" xmlns:xlink="http://www.w3.org/1999/xlink" version="1.1"><path d="M0 73L82 73L82 43L164 43L164 49L245 49L245 85L327 85L327 79L409 79L409 103L491 103L491 67L573 67L573 85L655 85L655 43L736 43L736 37L818 37L818 49L900 49L900 43L900 0L900 0L818 0L818 0L736 0L736 0L655 0L655 0L573 0L573 0L491 0L491 0L409 0L409 0L327 0L327 0L245 0L245 0L164 0L164 0L82 0L82 0L0 0Z" fill="#5e239d"></path><path d="M0 157L82 157L82 163L164 163L164 181L245 181L245 169L327 169L327 223L409 223L409 187L491 187L491 211L573 211L573 151L655 151L655 109L736 109L736 97L818 97L818 181L900 181L900 181L900 41L900 47L818 47L818 35L736 35L736 41L655 41L655 83L573 83L573 65L491 65L491 101L409 101L409 77L327 77L327 83L245 83L245 47L164 47L164 41L82 41L82 71L0 71Z" fill="#9b3fa0"></path><path d="M0 277L82 277L82 451L164 451L164 379L245 379L245 313L327 313L327 337L409 337L409 391L491 391L491 343L573 343L573 343L655 343L655 301L736 301L736 295L818 295L818 403L900 403L900 343L900 179L900 179L818 179L818 95L736 95L736 107L655 107L655 149L573 149L573 209L491 209L491 185L409 185L409 221L327 221L327 167L245 167L245 179L164 179L164 161L82 161L82 155L0 155Z" fill="#c766a6"></path><path d="M0 367L82 367L82 505L164 505L164 469L245 469L245 415L327 415L327 415L409 415L409 475L491 475L491 415L573 415L573 409L655 409L655 391L736 391L736 415L818 415L818 529L900 529L900 409L900 341L900 401L818 401L818 293L736 293L736 299L655 299L655 341L573 341L573 341L491 341L491 389L409 389L409 335L327 335L327 311L245 311L245 377L164 377L164 449L82 449L82 275L0 275Z" fill="#e792b3"></path><path d="M0 601L82 601L82 601L164 601L164 601L245 601L245 601L327 601L327 601L409 601L409 601L491 601L491 601L573 601L573 601L655 601L655 601L736 601L736 601L818 601L818 601L900 601L900 601L900 407L900 527L818 527L818 413L736 413L736 389L655 389L655 407L573 407L573 413L491 413L491 473L409 473L409 413L327 413L327 413L245 413L245 467L164 467L164 503L82 503L82 365L0 365Z" fill="#ffc0cb"></path></svg>