<svg id="visual" viewBox="0 0 900 600" width="900" height="600" xmlns="http://www.w3.org/2000/svg" xmlns:xlink="http://www.w3.org/1999/xlink" version="1.1"><path d="M0 13L39 13L39 73L78 73L78 49L117 49L117 67L157 67L157 43L196 43L196 13L235 13L235 67L274 67L274 85L313 85L313 19L352 19L352 85L391 85L391 91L430 91L430 13L470 13L470 67L509 67L509 79L548 79L548 31L587 31L587 25L626 25L626 25L665 25L665 61L704 61L704 43L743 43L743 67L783 67L783 97L822 97L822 67L861 67L861 91L900 91L900 25L900 0L900 0L861 0L861 0L822 0L822 0L783 0L783 0L743 0L743 0L704 0L704 0L665 0L665 0L626 0L626 0L587 0L587 0L548 0L548 0L509 0L509 0L470 0L470 0L430 0L430 0L391 0L391 0L352 0L352 0L313 0L313 0L274 0L274 0L235 0L235 0L196 0L196 0L157 0L157 0L117 0L117 0L78 0L78 0L39 0L39 0L0 0Z" fill="#ffc0cb"></path><path d="M0 61L39 61L39 103L78 103L78 121L117 121L117 85L157 85L157 85L196 85L196 13L235 13L235 109L274 109L274 139L313 139L313 25L352 25L352 109L391 109L391 175L430 175L430 43L470 43L470 109L509 109L509 115L548 115L548 79L587 79L587 43L626 43L626 67L665 67L665 73L704 73L704 127L743 127L743 151L783 151L783 127L822 127L822 115L861 115L861 175L900 175L900 37L900 23L900 89L861 89L861 65L822 65L822 95L783 95L783 65L743 65L743 41L704 41L704 59L665 59L665 23L626 23L626 23L587 23L587 29L548 29L548 77L509 77L509 65L470 65L470 11L430 11L430 89L391 89L391 83L352 83L352 17L313 17L313 83L274 83L274 65L235 65L235 11L196 11L196 41L157 41L157 65L117 65L117 47L78 47L78 71L39 71L39 11L0 11Z" fill="#ffbebb"></path><path d="M0 73L39 73L39 151L78 151L78 187L117 187L117 121L157 121L157 121L196 121L196 55L235 55L235 157L274 157L274 187L313 187L313 61L352 61L352 145L391 145L391 187L430 187L430 43L470 43L470 175L509 175L509 169L548 169L548 139L587 139L587 73L626 73L626 67L665 67L665 91L704 91L704 133L743 133L743 193L783 193L783 157L822 157L822 169L861 169L861 193L900 193L900 97L900 35L900 173L861 173L861 113L822 113L822 125L783 125L783 149L743 149L743 125L704 125L704 71L665 71L665 65L626 65L626 41L587 41L587 77L548 77L548 113L509 113L509 107L470 107L470 41L430 41L430 173L391 173L391 107L352 107L352 23L313 23L313 137L274 137L274 107L235 107L235 11L196 11L196 83L157 83L157 83L117 83L117 119L78 119L78 101L39 101L39 59L0 59Z" fill="#ffbfa8"></path><path d="M0 97L39 97L39 271L78 271L78 283L117 283L117 211L157 211L157 295L196 295L196 61L235 61L235 265L274 265L274 259L313 259L313 211L352 211L352 145L391 145L391 307L430 307L430 79L470 79L470 295L509 295L509 235L548 235L548 259L587 259L587 193L626 193L626 223L665 223L665 151L704 151L704 259L743 259L743 295L783 295L783 259L822 259L822 205L861 205L861 295L900 295L900 217L900 95L900 191L861 191L861 167L822 167L822 155L783 155L783 191L743 191L743 131L704 131L704 89L665 89L665 65L626 65L626 71L587 71L587 137L548 137L548 167L509 167L509 173L470 173L470 41L430 41L430 185L391 185L391 143L352 143L352 59L313 59L313 185L274 185L274 155L235 155L235 53L196 53L196 119L157 119L157 119L117 119L117 185L78 185L78 149L39 149L39 71L0 71Z" fill="#ffc395"></path><path d="M0 211L39 211L39 331L78 331L78 307L117 307L117 289L157 289L157 337L196 337L196 85L235 85L235 331L274 331L274 259L313 259L313 283L352 283L352 199L391 199L391 319L430 319L430 145L470 145L470 331L509 331L509 319L548 319L548 271L587 271L587 295L626 295L626 247L665 247L665 235L704 235L704 307L743 307L743 373L783 373L783 337L822 337L822 229L861 229L861 337L900 337L900 331L900 215L900 293L861 293L861 203L822 203L822 257L783 257L783 293L743 293L743 257L704 257L704 149L665 149L665 221L626 221L626 191L587 191L587 257L548 257L548 233L509 233L509 293L470 293L470 77L430 77L430 305L391 305L391 143L352 143L352 209L313 209L313 257L274 257L274 263L235 263L235 59L196 59L196 293L157 293L157 209L117 209L117 281L78 281L78 269L39 269L39 95L0 95Z" fill="#faca85"></path><path d="M0 229L39 229L39 331L78 331L78 367L117 367L117 295L157 295L157 337L196 337L196 97L235 97L235 403L274 403L274 325L313 325L313 337L352 337L352 229L391 229L391 355L430 355L430 145L470 145L470 367L509 367L509 379L548 379L548 331L587 331L587 373L626 373L626 277L665 277L665 253L704 253L704 343L743 343L743 451L783 451L783 379L822 379L822 277L861 277L861 373L900 373L900 403L900 329L900 335L861 335L861 227L822 227L822 335L783 335L783 371L743 371L743 305L704 305L704 233L665 233L665 245L626 245L626 293L587 293L587 269L548 269L548 317L509 317L509 329L470 329L470 143L430 143L430 317L391 317L391 197L352 197L352 281L313 281L313 257L274 257L274 329L235 329L235 83L196 83L196 335L157 335L157 287L117 287L117 305L78 305L78 329L39 329L39 209L0 209Z" fill="#e6d27b"></path><path d="M0 289L39 289L39 373L78 373L78 373L117 373L117 313L157 313L157 349L196 349L196 145L235 145L235 403L274 403L274 331L313 331L313 385L352 385L352 289L391 289L391 367L430 367L430 145L470 145L470 367L509 367L509 391L548 391L548 391L587 391L587 415L626 415L626 319L665 319L665 277L704 277L704 373L743 373L743 451L783 451L783 397L822 397L822 325L861 325L861 391L900 391L900 427L900 401L900 371L861 371L861 275L822 275L822 377L783 377L783 449L743 449L743 341L704 341L704 251L665 251L665 275L626 275L626 371L587 371L587 329L548 329L548 377L509 377L509 365L470 365L470 143L430 143L430 353L391 353L391 227L352 227L352 335L313 335L313 323L274 323L274 401L235 401L235 95L196 95L196 335L157 335L157 293L117 293L117 365L78 365L78 329L39 329L39 227L0 227Z" fill="#cbdb79"></path><path d="M0 313L39 313L39 409L78 409L78 415L117 415L117 361L157 361L157 391L196 391L196 187L235 187L235 451L274 451L274 391L313 391L313 397L352 397L352 355L391 355L391 415L430 415L430 151L470 151L470 427L509 427L509 451L548 451L548 403L587 403L587 439L626 439L626 355L665 355L665 283L704 283L704 403L743 403L743 469L783 469L783 457L822 457L822 379L861 379L861 445L900 445L900 463L900 425L900 389L861 389L861 323L822 323L822 395L783 395L783 449L743 449L743 371L704 371L704 275L665 275L665 317L626 317L626 413L587 413L587 389L548 389L548 389L509 389L509 365L470 365L470 143L430 143L430 365L391 365L391 287L352 287L352 383L313 383L313 329L274 329L274 401L235 401L235 143L196 143L196 347L157 347L157 311L117 311L117 371L78 371L78 371L39 371L39 287L0 287Z" fill="#a8e383"></path><path d="M0 595L39 595L39 475L78 475L78 439L117 439L117 433L157 433L157 559L196 559L196 451L235 451L235 589L274 589L274 565L313 565L313 517L352 517L352 451L391 451L391 523L430 523L430 265L470 265L470 487L509 487L509 577L548 577L548 565L587 565L587 505L626 505L626 541L665 541L665 439L704 439L704 523L743 523L743 535L783 535L783 571L822 571L822 493L861 493L861 463L900 463L900 493L900 461L900 443L861 443L861 377L822 377L822 455L783 455L783 467L743 467L743 401L704 401L704 281L665 281L665 353L626 353L626 437L587 437L587 401L548 401L548 449L509 449L509 425L470 425L470 149L430 149L430 413L391 413L391 353L352 353L352 395L313 395L313 389L274 389L274 449L235 449L235 185L196 185L196 389L157 389L157 359L117 359L117 413L78 413L78 407L39 407L39 311L0 311Z" fill="#78ea97"></path><path d="M0 601L39 601L39 601L78 601L78 601L117 601L117 601L157 601L157 601L196 601L196 601L235 601L235 601L274 601L274 601L313 601L313 601L352 601L352 601L391 601L391 601L430 601L430 601L470 601L470 601L509 601L509 601L548 601L548 601L587 601L587 601L626 601L626 601L665 601L665 601L704 601L704 601L743 601L743 601L783 601L783 601L822 601L822 601L861 601L861 601L900 601L900 601L900 491L900 461L861 461L861 491L822 491L822 569L783 569L783 533L743 533L743 521L704 521L704 437L665 437L665 539L626 539L626 503L587 503L587 563L548 563L548 575L509 575L509 485L470 485L470 263L430 263L430 521L391 521L391 449L352 449L352 515L313 515L313 563L274 563L274 587L235 587L235 449L196 449L196 557L157 557L157 431L117 431L117 437L78 437L78 473L39 473L39 593L0 593Z" fill="#00f0b5"></path></svg>